<?xml version="1.0" encoding="UTF-8"?>
<svg id="Layer_2" data-name="Layer 2" xmlns="http://www.w3.org/2000/svg" viewBox="0 0 26.63 29.72">
  <defs>
    <style>
      .cls-1 {
        fill: none;
        stroke: #5686da;
        stroke-miterlimit: 10;
      }
    </style>
  </defs>
  <g id="Layer_1-2" data-name="Layer 1">
    <g>
      <circle class="cls-1" cx="18.36" cy="8.27" r="7.77"/>
      <path class="cls-1" d="M11.06,5.6c-1.24,1.8-2.05,4.41-1.65,6.76.2,1.19.71,2.31,1.63,3.23,2.74,2.74,7.29,1.85,9.99-.02"/>
      <path class="cls-1" d="M9.42,12.36c-1.88,3.94-5.65,9.75-8.72,14.86-.77,1.28.85,2.65,1.98,1.67,4.63-4,10-8.74,13.45-11.57"/>
      <line class="cls-1" x1="10.59" y1="9.45" x2="19.5" y2=".59"/>
      <polyline class="cls-1" points="12.52 13.4 16.4 9.51 19.76 6.13 23.46 2.41"/>
      <line class="cls-1" x1="14.15" y1="17.2" x2="14.02" y2="17.33"/>
      <polyline class="cls-1" points="15.75 15.59 19.12 12.21 22.48 8.84 25.67 5.63"/>
      <polyline class="cls-1" points="14.92 1.31 16.85 3.24 19.76 6.13 22.48 8.84 25.34 11.69"/>
      <polyline class="cls-1" points="11.5 4.63 13.47 6.59 16.4 9.51 19.12 12.21 22.03 15.12"/>
    </g>
  </g>
</svg>