<?xml version="1.0" encoding="UTF-8"?>
<svg id="Layer_2" data-name="Layer 2" xmlns="http://www.w3.org/2000/svg" viewBox="0 0 38.19 29.09">
  <defs>
    <style>
      .cls-1 {
        stroke-width: 1.5px;
      }

      .cls-1, .cls-2 {
        fill: none;
        stroke: #5686da;
        stroke-linecap: round;
        stroke-linejoin: round;
      }

      .cls-2 {
        stroke-width: 2px;
      }
    </style>
  </defs>
  <g id="Layer_1-2" data-name="Layer 1">
    <g>
      <g>
        <path class="cls-2" d="M1.01,4.43c2.76-.97,6.07-1.91,9.86-2.57,2.98-.52,5.72-.76,8.14-.86.7,2.12,1.79,6.39.64,11.46-.6,2.66-1.77,7.86-5.36,8.9-4.37,1.26-9.02-4.64-9.66-5.46C1.11,11.42.96,6.35,1.01,4.43Z"/>
        <path class="cls-1" d="M6.46,9.69c.04-.09.48-.91,1.44-1.06.76-.12,1.33.28,1.44.36"/>
        <path class="cls-1" d="M13.3,8.13c.04-.09.48-.91,1.44-1.06.76-.12,1.33.28,1.44.36"/>
        <path class="cls-1" d="M8.52,13.91c.97,1.57,2.82,2.33,4.5,1.89,1.41-.36,2.51-1.51,2.89-2.96"/>
      </g>
      <g>
        <path class="cls-2" d="M20.13,7.13c2.75.31,5.9.86,9.33,1.81,2.91.8,5.49,1.75,7.73,2.7-.27,2.21-1.11,6.54-4.31,10.64-1.68,2.15-4.96,6.35-8.65,5.75-4.49-.72-6.17-8.04-6.4-9.06-.05-.22-.1-.45-.14-.67"/>
        <path class="cls-1" d="M22.13,14.14c.08-.06.83-.62,1.75-.34.74.22,1.08.82,1.15.94"/>
        <path class="cls-1" d="M28.98,15.65c.08-.06.83-.62,1.75-.34.74.22,1.08.82,1.15.94"/>
        <path class="cls-1" d="M22.19,18.84c.21,1.83,1.55,3.31,3.26,3.63,1.43.27,2.91-.29,3.88-1.45"/>
      </g>
    </g>
  </g>
</svg>