<?xml version="1.0" encoding="UTF-8"?>
<svg id="Layer_2" data-name="Layer 2" xmlns="http://www.w3.org/2000/svg" viewBox="0 0 36.15 32.71">
  <defs>
    <style>
      .cls-1 {
        fill: none;
        stroke: #5686da;
        stroke-linecap: round;
        stroke-linejoin: round;
        stroke-width: 2px;
      }
    </style>
  </defs>
  <g id="Layer_1-2" data-name="Layer 1">
    <g>
      <path class="cls-1" d="M4.62,1l-3.31,7.81c-1.03,2.43.61,5.27,3.25,5.37.02,0,.04,0,.06,0,2.15.05,4.11-1.56,4.5-3.8.33,2.21,2.27,3.85,4.5,3.8,2.24-.05,4.12-1.78,4.34-4.02.24,2.27,2.18,4.01,4.45,4.02,2.23,0,4.15-1.68,4.45-3.91.54,2.45,2.71,4.08,4.93,3.91.02,0,.03,0,.05,0,2.51-.23,3.99-2.98,3.01-5.31l-3.31-7.86S4.42,1,4.62,1Z"/>
      <path class="cls-1" d="M3.6,14.01v16.1c0,.89.72,1.61,1.61,1.61h25.64c.89,0,1.61-.72,1.61-1.61V14.01"/>
    </g>
  </g>
</svg>